<svg aria-hidden="true" style="position: absolute; width: 0; height: 0; overflow: hidden;" version="1.1" xmlns="http://www.w3.org/2000/svg" xmlns:xlink="http://www.w3.org/1999/xlink">
<defs>
<symbol id="button" viewBox="0 0 99 32">
<path  d="M17.166 21.815c0.353 0 0.634 0.071 0.841 0.213 0.211 0.138 0.317 0.338 0.317 0.599 0 0.188-0.052 0.338-0.156 0.449-0.104 0.108-0.246 0.186-0.426 0.236v0.023c0.123 0.035 0.236 0.083 0.34 0.144s0.186 0.142 0.248 0.242c0.065 0.1 0.098 0.228 0.098 0.386 0 0.257-0.108 0.474-0.323 0.651-0.211 0.173-0.543 0.259-0.996 0.259-0.223 0-0.424-0.019-0.605-0.058-0.18-0.035-0.33-0.083-0.449-0.144v-0.455c0.131 0.061 0.284 0.117 0.461 0.167 0.18 0.050 0.376 0.075 0.588 0.075 0.23 0 0.424-0.038 0.582-0.115 0.161-0.081 0.242-0.217 0.242-0.409 0-0.346-0.294-0.518-0.881-0.518h-0.415v-0.415h0.334c0.265 0 0.476-0.035 0.634-0.104 0.161-0.073 0.242-0.196 0.242-0.369 0-0.146-0.061-0.255-0.184-0.328-0.119-0.073-0.292-0.109-0.518-0.109-0.169 0-0.319 0.017-0.449 0.052-0.127 0.031-0.267 0.079-0.42 0.144l-0.179-0.403c0.323-0.142 0.682-0.213 1.077-0.213zM20.347 21.821c0.376 0 0.655 0.083 0.835 0.248s0.271 0.428 0.271 0.789v2.102h-0.369l-0.098-0.438h-0.023c-0.134 0.169-0.276 0.294-0.426 0.374-0.146 0.081-0.349 0.121-0.611 0.121-0.28 0-0.513-0.073-0.697-0.219-0.184-0.15-0.276-0.382-0.276-0.697 0-0.307 0.121-0.543 0.363-0.708 0.242-0.169 0.614-0.261 1.117-0.276l0.524-0.017v-0.184c0-0.257-0.056-0.436-0.167-0.536s-0.269-0.15-0.472-0.15c-0.161 0-0.315 0.025-0.461 0.075-0.146 0.046-0.282 0.1-0.409 0.161l-0.156-0.38c0.134-0.073 0.294-0.134 0.478-0.184 0.184-0.054 0.376-0.081 0.576-0.081zM20.497 23.468c-0.384 0.015-0.651 0.077-0.801 0.184-0.146 0.108-0.219 0.259-0.219 0.455 0 0.173 0.052 0.3 0.156 0.38 0.108 0.081 0.244 0.121 0.409 0.121 0.261 0 0.478-0.071 0.651-0.213 0.173-0.146 0.259-0.369 0.259-0.668v-0.276l-0.455 0.017zM25.016 21.873v3.087h-0.507v-2.655h-1.596v2.655h-0.507v-3.087h2.609zM26.479 23.756c0 0.046-0.002 0.115-0.006 0.207s-0.010 0.184-0.017 0.276c-0.004 0.092-0.008 0.165-0.012 0.219l1.653-2.586h0.622v3.087h-0.472v-1.82c0-0.061 0-0.142 0-0.242 0.004-0.1 0.008-0.198 0.012-0.294 0.004-0.1 0.008-0.175 0.012-0.225l-1.642 2.58h-0.628v-3.087h0.478v1.884zM30.94 25.018c-0.273 0-0.516-0.056-0.732-0.167-0.211-0.111-0.378-0.284-0.501-0.518-0.119-0.234-0.179-0.534-0.179-0.899 0-0.38 0.063-0.689 0.19-0.927s0.298-0.413 0.513-0.524c0.219-0.111 0.467-0.167 0.743-0.167 0.157 0 0.309 0.017 0.455 0.052 0.146 0.031 0.265 0.069 0.357 0.115l-0.156 0.42c-0.092-0.035-0.2-0.067-0.323-0.098s-0.238-0.046-0.346-0.046c-0.607 0-0.91 0.39-0.91 1.169 0 0.372 0.073 0.659 0.219 0.858 0.15 0.196 0.371 0.294 0.662 0.294 0.169 0 0.317-0.017 0.444-0.052 0.131-0.035 0.25-0.077 0.357-0.127v0.449c-0.104 0.054-0.219 0.094-0.346 0.121-0.123 0.031-0.273 0.046-0.449 0.046zM33.639 21.821c0.376 0 0.655 0.083 0.835 0.248s0.271 0.428 0.271 0.789v2.102h-0.369l-0.098-0.438h-0.023c-0.134 0.169-0.276 0.294-0.426 0.374-0.146 0.081-0.349 0.121-0.611 0.121-0.28 0-0.513-0.073-0.697-0.219-0.184-0.15-0.276-0.382-0.276-0.697 0-0.307 0.121-0.543 0.363-0.708 0.242-0.169 0.614-0.261 1.117-0.276l0.524-0.017v-0.184c0-0.257-0.056-0.436-0.167-0.536s-0.269-0.15-0.472-0.15c-0.161 0-0.315 0.025-0.461 0.075-0.146 0.046-0.282 0.1-0.409 0.161l-0.156-0.38c0.134-0.073 0.294-0.134 0.478-0.184 0.184-0.054 0.376-0.081 0.576-0.081zM33.788 23.468c-0.384 0.015-0.651 0.077-0.801 0.184-0.146 0.108-0.219 0.259-0.219 0.455 0 0.173 0.052 0.3 0.156 0.38 0.108 0.081 0.244 0.121 0.409 0.121 0.261 0 0.478-0.071 0.651-0.213 0.173-0.146 0.259-0.369 0.259-0.668v-0.276l-0.455 0.017zM37.829 22.299h-1.008v2.661h-0.501v-2.661h-0.996v-0.426h2.506v0.426zM39.86 23.14c0.803 0 1.204 0.292 1.204 0.876 0 0.288-0.098 0.518-0.294 0.691-0.196 0.169-0.507 0.253-0.933 0.253h-1.4v-3.087h0.507v1.267h0.916zM40.557 24.044c0-0.188-0.067-0.315-0.202-0.38-0.131-0.069-0.315-0.104-0.553-0.104h-0.858v0.991h0.87c0.215 0 0.392-0.038 0.53-0.115 0.142-0.077 0.213-0.207 0.213-0.392zM43.096 25.018c-0.273 0-0.516-0.056-0.732-0.167-0.211-0.111-0.378-0.284-0.501-0.518-0.119-0.234-0.179-0.534-0.179-0.899 0-0.38 0.063-0.689 0.19-0.927s0.298-0.413 0.513-0.524c0.219-0.111 0.467-0.167 0.743-0.167 0.157 0 0.309 0.017 0.455 0.052 0.146 0.031 0.265 0.069 0.357 0.115l-0.156 0.42c-0.092-0.035-0.2-0.067-0.323-0.098s-0.238-0.046-0.346-0.046c-0.607 0-0.91 0.39-0.91 1.169 0 0.372 0.073 0.659 0.219 0.858 0.15 0.196 0.371 0.294 0.662 0.294 0.169 0 0.317-0.017 0.444-0.052 0.131-0.035 0.25-0.077 0.357-0.127v0.449c-0.104 0.054-0.219 0.094-0.346 0.121-0.123 0.031-0.273 0.046-0.449 0.046zM44.815 24.96h-0.588l0.881-1.296c-0.119-0.031-0.234-0.079-0.346-0.144-0.111-0.069-0.202-0.163-0.271-0.282-0.069-0.123-0.104-0.275-0.104-0.455 0-0.296 0.1-0.52 0.3-0.674 0.2-0.157 0.465-0.236 0.795-0.236h1.382v3.087h-0.507v-1.227h-0.749l-0.795 1.227zM44.878 22.788c0 0.177 0.065 0.309 0.196 0.397 0.134 0.084 0.321 0.127 0.559 0.127h0.726v-1.020h-0.824c-0.234 0-0.403 0.046-0.507 0.138-0.1 0.092-0.15 0.211-0.15 0.357zM49.846 21.873v1.284h1.676v-1.284h0.507v3.087h-0.507v-1.377h-1.676v1.377h-0.507v-3.087h0.507zM54.176 21.821c0.376 0 0.655 0.083 0.835 0.248s0.271 0.428 0.271 0.789v2.102h-0.369l-0.098-0.438h-0.023c-0.134 0.169-0.276 0.294-0.426 0.374-0.146 0.081-0.349 0.121-0.611 0.121-0.28 0-0.513-0.073-0.697-0.219-0.184-0.15-0.276-0.382-0.276-0.697 0-0.307 0.121-0.543 0.363-0.708 0.242-0.169 0.614-0.261 1.117-0.276l0.524-0.017v-0.184c0-0.257-0.056-0.436-0.167-0.536s-0.269-0.15-0.472-0.15c-0.161 0-0.315 0.025-0.461 0.075-0.146 0.046-0.282 0.1-0.409 0.161l-0.156-0.38c0.134-0.073 0.294-0.134 0.478-0.184 0.184-0.054 0.376-0.081 0.576-0.081zM54.325 23.468c-0.384 0.015-0.651 0.077-0.801 0.184-0.146 0.108-0.219 0.259-0.219 0.455 0 0.173 0.052 0.3 0.156 0.38 0.108 0.081 0.244 0.121 0.409 0.121 0.261 0 0.478-0.071 0.651-0.213 0.173-0.146 0.259-0.369 0.259-0.668v-0.276l-0.455 0.017zM59.557 21.873h0.553l-1.319 1.486 1.428 1.601h-0.588l-1.394-1.567v1.567h-0.507v-3.087h0.507v1.498l1.319-1.498zM63.352 23.411c0 0.511-0.131 0.906-0.392 1.187-0.257 0.28-0.607 0.42-1.048 0.42-0.273 0-0.516-0.061-0.732-0.184-0.211-0.127-0.378-0.309-0.501-0.547-0.123-0.242-0.184-0.534-0.184-0.876 0-0.511 0.129-0.904 0.386-1.181s0.607-0.415 1.048-0.415c0.28 0 0.526 0.063 0.737 0.19 0.215 0.123 0.382 0.303 0.501 0.541 0.123 0.234 0.184 0.522 0.184 0.864zM61.019 23.411c0 0.365 0.071 0.655 0.213 0.87 0.146 0.211 0.376 0.317 0.691 0.317 0.311 0 0.54-0.106 0.685-0.317 0.146-0.215 0.219-0.505 0.219-0.87s-0.073-0.651-0.219-0.858c-0.146-0.207-0.376-0.311-0.691-0.311s-0.543 0.104-0.685 0.311c-0.142 0.207-0.213 0.493-0.213 0.858zM64.662 21.873v1.284h1.676v-1.284h0.507v3.087h-0.507v-1.377h-1.676v1.377h-0.507v-3.087h0.507zM69.061 25.018c-0.273 0-0.516-0.056-0.732-0.167-0.211-0.111-0.378-0.284-0.501-0.518-0.119-0.234-0.179-0.534-0.179-0.899 0-0.38 0.063-0.689 0.19-0.927s0.298-0.413 0.513-0.524c0.219-0.111 0.467-0.167 0.743-0.167 0.157 0 0.309 0.017 0.455 0.052 0.146 0.031 0.265 0.069 0.357 0.115l-0.156 0.42c-0.092-0.035-0.2-0.067-0.323-0.098s-0.238-0.046-0.346-0.046c-0.607 0-0.91 0.39-0.91 1.169 0 0.372 0.073 0.659 0.219 0.858 0.15 0.196 0.371 0.294 0.662 0.294 0.169 0 0.317-0.017 0.444-0.052 0.131-0.035 0.25-0.077 0.357-0.127v0.449c-0.104 0.054-0.219 0.094-0.346 0.121-0.123 0.031-0.273 0.046-0.449 0.046zM70.106 21.873h0.541l0.668 1.757c0.058 0.154 0.109 0.301 0.156 0.444 0.046 0.138 0.081 0.271 0.104 0.397h0.023c0.023-0.096 0.060-0.221 0.109-0.374 0.050-0.157 0.102-0.315 0.156-0.472l0.628-1.751h0.547l-1.331 3.514c-0.108 0.292-0.248 0.524-0.42 0.697-0.169 0.173-0.403 0.259-0.703 0.259-0.092 0-0.173-0.006-0.242-0.017-0.069-0.008-0.129-0.017-0.179-0.029v-0.403c0.042 0.008 0.092 0.015 0.15 0.023 0.061 0.008 0.125 0.012 0.19 0.012 0.177 0 0.319-0.050 0.426-0.15 0.111-0.1 0.198-0.232 0.259-0.397l0.161-0.409-1.244-3.099zM75.764 24.96h-0.513v-2.667h-0.91c-0.050 0.649-0.119 1.173-0.207 1.572-0.088 0.396-0.205 0.684-0.351 0.864s-0.33 0.271-0.553 0.271c-0.050 0-0.1-0.004-0.15-0.012-0.046-0.004-0.084-0.013-0.115-0.029v-0.38c0.023 0.008 0.048 0.013 0.075 0.017s0.054 0.006 0.081 0.006c0.207 0 0.372-0.221 0.495-0.662 0.127-0.442 0.223-1.131 0.288-2.068h1.86v3.087zM78.166 23.14c0.803 0 1.204 0.292 1.204 0.876 0 0.288-0.098 0.518-0.294 0.691-0.196 0.169-0.507 0.253-0.933 0.253h-1.4v-3.087h0.507v1.267h0.916zM78.863 24.044c0-0.188-0.067-0.315-0.202-0.38-0.131-0.069-0.315-0.104-0.553-0.104h-0.858v0.991h0.87c0.215 0 0.392-0.038 0.53-0.115 0.142-0.077 0.213-0.207 0.213-0.392zM82.008 22.299h-1.008v2.661h-0.501v-2.661h-0.996v-0.426h2.506v0.426zM83.786 21.821c0.376 0 0.655 0.083 0.835 0.248s0.271 0.428 0.271 0.789v2.102h-0.369l-0.098-0.438h-0.023c-0.134 0.169-0.276 0.294-0.426 0.374-0.146 0.081-0.349 0.121-0.611 0.121-0.28 0-0.513-0.073-0.697-0.219-0.184-0.15-0.276-0.382-0.276-0.697 0-0.307 0.121-0.543 0.363-0.708 0.242-0.169 0.614-0.261 1.117-0.276l0.524-0.017v-0.184c0-0.257-0.056-0.436-0.167-0.536s-0.269-0.15-0.472-0.15c-0.161 0-0.315 0.025-0.461 0.075-0.146 0.046-0.282 0.1-0.409 0.161l-0.156-0.38c0.134-0.073 0.294-0.134 0.478-0.184 0.184-0.054 0.376-0.081 0.576-0.081zM83.935 23.468c-0.384 0.015-0.651 0.077-0.801 0.184-0.146 0.108-0.219 0.259-0.219 0.455 0 0.173 0.052 0.3 0.156 0.38 0.108 0.081 0.244 0.121 0.409 0.121 0.261 0 0.478-0.071 0.651-0.213 0.173-0.146 0.259-0.369 0.259-0.668v-0.276l-0.455 0.017zM88.892 26.031h-0.495v-1.071h-2.552v-3.087h0.507v2.661h1.596v-2.661h0.507v2.667h0.438v1.492zM89.963 23.756c0 0.046-0.002 0.115-0.006 0.207s-0.010 0.184-0.017 0.276c-0.004 0.092-0.008 0.165-0.012 0.219l1.653-2.586h0.622v3.087h-0.472v-1.82c0-0.061 0-0.142 0-0.242 0.004-0.1 0.008-0.198 0.012-0.294 0.004-0.1 0.008-0.175 0.012-0.225l-1.642 2.58h-0.628v-3.087h0.478v1.884zM97.195 23.411c0 0.511-0.123 0.906-0.369 1.187s-0.578 0.42-0.996 0.42c-0.392 0-0.708-0.123-0.95-0.369-0.238-0.246-0.372-0.601-0.403-1.066h-0.783v1.377h-0.507v-3.087h0.507v1.284h0.789c0.042-0.434 0.182-0.766 0.42-0.996s0.551-0.346 0.939-0.346c0.265 0 0.499 0.063 0.703 0.19 0.204 0.123 0.363 0.303 0.478 0.541 0.115 0.234 0.173 0.522 0.173 0.864zM94.994 23.411c0 0.388 0.067 0.684 0.202 0.887 0.134 0.2 0.348 0.3 0.639 0.3 0.296 0 0.509-0.1 0.639-0.3 0.131-0.204 0.196-0.499 0.196-0.887s-0.067-0.68-0.202-0.876c-0.131-0.196-0.342-0.294-0.634-0.294s-0.505 0.098-0.639 0.294c-0.134 0.196-0.202 0.488-0.202 0.876z"></path>
<path  d="M22.638 16.226c0.125-0.125 0.125-0.328 0-0.453l-2.036-2.036c-0.125-0.125-0.328-0.125-0.453 0s-0.125 0.328 0 0.453l1.81 1.81-1.81 1.81c-0.125 0.125-0.125 0.328 0 0.453s0.328 0.125 0.453 0l2.036-2.036zM9.605 16.32h12.807v-0.64h-12.807v0.64z"></path>
<path fill="none" stroke="#fff" style="stroke: var(--color1, #fff)" stroke-linejoin="miter" stroke-linecap="butt" stroke-miterlimit="4" stroke-width="0.64" d="M31.697 16c0 8.66-7.024 15.68-15.688 15.68s-15.688-7.020-15.688-15.68 7.024-15.68 15.688-15.68c8.665 0 15.688 7.020 15.688 15.68z"></path>
</symbol>
<symbol id="btn" viewBox="0 0 32 32">
<path d="M22.638 16.226c0.125-0.125 0.125-0.328 0-0.453l-2.036-2.036c-0.125-0.125-0.328-0.125-0.453 0s-0.125 0.328 0 0.453l1.81 1.81-1.81 1.81c-0.125 0.125-0.125 0.328 0 0.453s0.328 0.125 0.453 0l2.036-2.036zM9.605 16.32h12.807v-0.64h-12.807v0.64z"></path>
<path fill="none" stroke-linecap="butt" stroke-miterlimit="4" stroke-width="0.64" d="M31.697 16c0 8.66-7.024 15.68-15.688 15.68s-15.688-7.020-15.688-15.68 7.024-15.68 15.688-15.68c8.665 0 15.688 7.020 15.688 15.68z"></path>
</symbol>
<symbol id="facebook" viewBox="0 0 19 32">
<path d="M11.328 32h-5.119c-0.855 0-1.551-0.696-1.551-1.552v-11.559h-2.986c-0.855 0-1.551-0.697-1.551-1.552v-4.953c0-0.856 0.696-1.552 1.551-1.552h2.986v-2.48c0-2.459 0.771-4.551 2.23-6.050 1.466-1.506 3.514-2.301 5.923-2.301l3.904 0.006c0.854 0.001 1.548 0.698 1.548 1.552v4.599c0 0.856-0.695 1.552-1.55 1.552l-2.628 0.001c-0.802 0-1.006 0.161-1.049 0.21-0.072 0.082-0.158 0.313-0.158 0.951v1.96h3.638c0.274 0 0.539 0.068 0.767 0.195 0.492 0.275 0.798 0.795 0.798 1.358l-0.002 4.953c0 0.855-0.696 1.552-1.55 1.552h-3.65v11.559c0 0.856-0.696 1.552-1.551 1.552zM6.532 30.124h4.472v-12.075c0-0.572 0.465-1.036 1.035-1.036h4.166l0.002-4.305h-4.168c-0.571 0-1.035-0.465-1.035-1.036v-2.799c0-0.733 0.074-1.566 0.627-2.193 0.668-0.757 1.72-0.845 2.454-0.845l2.305-0.001v-3.952l-3.579-0.006c-3.872 0-6.279 2.481-6.279 6.476v3.32c0 0.571-0.464 1.036-1.035 1.036h-3.502v4.305h3.502c0.571 0 1.035 0.465 1.035 1.036v12.075zM16.712 1.882v0z"></path>
</symbol>
<symbol id="instagram" viewBox="0 0 31 32">
<path  d="M22.234 0.528h-13.981c-4.55 0-8.252 3.7-8.252 8.248v13.974c0 4.548 3.702 8.248 8.252 8.248h13.982c4.55 0 8.252-3.7 8.252-8.248v-13.974c0-4.548-3.702-8.248-8.252-8.248v0zM28.699 22.751c0 3.563-2.9 6.461-6.465 6.461h-13.981c-3.565 0-6.465-2.899-6.465-6.461v-13.974c0-3.563 2.9-6.462 6.465-6.462h13.982c3.565 0 6.465 2.899 6.465 6.462v13.974z"></path>
<path  d="M15.243 7.432c-4.596 0-8.336 3.737-8.336 8.331s3.739 8.331 8.336 8.331 8.336-3.737 8.336-8.331c0-4.594-3.739-8.331-8.336-8.331zM15.243 22.308c-3.611 0-6.549-2.936-6.549-6.545s2.938-6.545 6.549-6.545c3.611 0 6.549 2.936 6.549 6.545s-2.938 6.545-6.549 6.545z"></path>
<path  d="M23.778 4.473c-1.358 0-2.463 1.104-2.463 2.462s1.105 2.462 2.463 2.462c1.358 0 2.463-1.104 2.463-2.462s-1.105-2.462-2.463-2.462zM23.778 7.61c-0.373 0-0.676-0.303-0.676-0.676s0.303-0.676 0.676-0.676c0.373 0 0.676 0.303 0.676 0.676s-0.303 0.676-0.676 0.676z"></path>
</symbol>
<symbol id="logo" viewBox="0 0 115 32">
<path fill="#fff" style="fill: var(--color1, #fff)" d="M8.905 15.155c0-0.574-0.203-1.013-0.609-1.318-0.406-0.311-1.136-0.635-2.191-0.973-1.055-0.345-1.89-0.682-2.505-1.014-1.677-0.905-2.516-2.125-2.516-3.659 0-0.797 0.223-1.507 0.669-2.128 0.453-0.628 1.099-1.118 1.937-1.47 0.845-0.351 1.792-0.527 2.84-0.527 1.055 0 1.995 0.193 2.82 0.578 0.825 0.378 1.464 0.916 1.917 1.611 0.46 0.696 0.69 1.486 0.69 2.372h-3.043c0-0.676-0.213-1.199-0.639-1.571-0.426-0.378-1.024-0.568-1.795-0.568-0.744 0-1.322 0.159-1.734 0.476-0.412 0.311-0.619 0.723-0.619 1.237 0 0.48 0.24 0.882 0.72 1.206 0.487 0.324 1.2 0.628 2.14 0.912 1.731 0.52 2.992 1.165 3.783 1.936s1.187 1.73 1.187 2.878c0 1.277-0.483 2.28-1.45 3.010-0.967 0.723-2.269 1.084-3.905 1.084-1.136 0-2.171-0.206-3.104-0.618-0.933-0.419-1.647-0.99-2.14-1.713-0.487-0.723-0.73-1.561-0.73-2.514h3.053c0 1.628 0.974 2.443 2.921 2.443 0.724 0 1.288-0.145 1.694-0.436 0.406-0.297 0.609-0.709 0.609-1.236zM37.763 16.584h6.461v2.443h-9.504v-14.757h3.043v12.314zM54.52 15.986h-5.335l-1.014 3.041h-3.236l5.498-14.757h2.82l5.528 14.757h-3.236l-1.025-3.040zM50.006 13.524h3.692l-1.856-5.524-1.836 5.524zM65.627 13.625h-2.424v5.402h-3.043v-14.757h5.488c1.744 0 3.090 0.389 4.037 1.166s1.42 1.875 1.42 3.294c0 1.007-0.22 1.848-0.659 2.524-0.432 0.669-1.092 1.203-1.978 1.601l3.195 6.030v0.142h-3.266l-2.77-5.402zM63.203 11.162h2.455c0.764 0 1.356-0.193 1.775-0.578 0.419-0.392 0.629-0.929 0.629-1.611 0-0.696-0.2-1.243-0.599-1.642-0.392-0.399-0.997-0.598-1.815-0.598h-2.445v4.429zM87.486 12.632h-5.842v3.953h6.857v2.443h-9.9v-14.757h9.88v2.463h-6.837v3.517h5.842v2.382zM95.571 9.358l2.769-5.088h3.499l-4.3 7.318 4.412 7.439h-3.54l-2.84-5.169-2.84 5.169h-3.54l4.413-7.439-4.301-7.318h3.499l2.77 5.088zM112.378 12.632h-5.843v3.953h6.857v2.443h-9.901v-14.757h9.879v2.463h-6.836v3.517h5.843v2.382z"></path>
<path fill="#fff" style="fill: var(--color1, #fff)" d="M23.37 6.391c-3.455 0-6.266 2.809-6.266 6.261s2.811 6.261 6.266 6.261c3.455 0 6.266-2.809 6.266-6.261s-2.811-6.261-6.266-6.261zM23.37 17.811c-2.847 0-5.163-2.314-5.163-5.159s2.316-5.159 5.163-5.159c2.847 0 5.163 2.314 5.163 5.159s-2.316 5.159-5.163 5.159z"></path>
<path fill="#fff" style="fill: var(--color1, #fff)" d="M23.37 2.275c-0.305 0-0.552 0.247-0.552 0.551v2.17c0 0.305 0.247 0.551 0.552 0.551s0.552-0.247 0.552-0.551v-2.171c0-0.304-0.247-0.551-0.552-0.551z"></path>
<path fill="#fff" style="fill: var(--color1, #fff)" d="M30.714 5.314c-0.216-0.215-0.565-0.215-0.78 0l-1.536 1.535c-0.215 0.215-0.215 0.564 0 0.78 0.108 0.108 0.249 0.161 0.39 0.161s0.282-0.054 0.39-0.161l1.536-1.535c0.216-0.215 0.216-0.564 0-0.779z"></path>
<path fill="#fff" style="fill: var(--color1, #fff)" d="M18.342 17.676c-0.216-0.215-0.565-0.215-0.78 0l-1.536 1.535c-0.216 0.215-0.216 0.564-0 0.78 0.108 0.108 0.249 0.161 0.39 0.161s0.282-0.054 0.39-0.161l1.536-1.535c0.216-0.215 0.216-0.564 0-0.78z"></path>
<path fill="#fff" style="fill: var(--color1, #fff)" d="M33.204 12.101h-2.172c-0.305 0-0.552 0.247-0.552 0.551s0.247 0.551 0.552 0.551h2.172c0.305 0 0.552-0.247 0.552-0.551s-0.247-0.551-0.552-0.551z"></path>
<path fill="#fff" style="fill: var(--color1, #fff)" d="M15.708 12.101h-2.172c-0.305 0-0.552 0.247-0.552 0.551s0.247 0.551 0.552 0.551h2.172c0.305 0 0.552-0.247 0.552-0.551s-0.247-0.551-0.552-0.551z"></path>
<path fill="#fff" style="fill: var(--color1, #fff)" d="M18.342 6.849l-1.536-1.535c-0.215-0.215-0.565-0.215-0.78 0s-0.216 0.564 0 0.78l1.536 1.535c0.108 0.108 0.249 0.162 0.39 0.162s0.282-0.054 0.39-0.162c0.215-0.215 0.215-0.564-0-0.78z"></path>
<path fill="#fff" style="fill: var(--color1, #fff)" d="M30.714 19.211l-1.536-1.535c-0.215-0.215-0.565-0.215-0.78 0s-0.215 0.564 0 0.779l1.536 1.535c0.108 0.108 0.249 0.162 0.39 0.162s0.282-0.054 0.39-0.162c0.216-0.215 0.216-0.564 0-0.779z"></path>
<path fill="#fff" style="fill: var(--color1, #fff)" d="M37.828 30.588l0.223-1.624 3.053 0.418c0.302 0.041 0.58-0.169 0.622-0.471s-0.17-0.58-0.472-0.621l-3.053-0.418 0.378-2.753 3.053 0.418c0.302 0.041 0.58-0.17 0.622-0.471s-0.17-0.58-0.472-0.621l-3.053-0.418 0.070-0.508 0.153-1.116c0.041-0.302-0.17-0.58-0.472-0.621s-0.58 0.17-0.622 0.471l-0.078 0.57-2.7-0.37c-1.758-0.241-3.397 0.851-3.892 2.499l-4.86-0.666c-1.591-0.218-2.707-1.689-2.489-3.278l0.176-1.285c0.041-0.302-0.17-0.58-0.472-0.621s-0.58 0.169-0.622 0.471l-0.176 1.285c-0.301 2.192 1.239 4.219 3.432 4.52l4.86 0.666c0.032 1.72 1.316 3.213 3.075 3.454l2.7 0.37-0.078 0.57c-0.041 0.302 0.17 0.58 0.472 0.621s0.58-0.169 0.622-0.471zM34.264 28.406c-1.341-0.184-2.283-1.424-2.099-2.764s1.425-2.281 2.766-2.097l2.7 0.37-0.667 4.861-2.7-0.37z"></path>
<path fill="#fff" style="fill: var(--color1, #fff)" d="M65.47 1.967c0.304 0 0.552-0.247 0.552-0.551s-0.247-0.551-0.552-0.551c-0.305 0-0.552 0.247-0.552 0.551s0.247 0.551 0.552 0.551z"></path>
<path fill="#fff" style="fill: var(--color1, #fff)" d="M62.873 1.967c0.305 0 0.552-0.247 0.552-0.551s-0.247-0.551-0.552-0.551c-0.305 0-0.552 0.247-0.552 0.551s0.247 0.551 0.552 0.551z"></path>
</symbol>
<symbol id="telegram" viewBox="0 0 45 32">
<path d="M44.090 0.556c-0.428-0.5-1.137-0.685-1.767-0.463l-40.048 13.884c-0.8 0.279-1.362 0.955-1.466 1.765-0.103 0.806 0.267 1.589 0.962 2.039l5.725 3.749c0.555 0.363 1.268 0.402 1.862 0.102l12.418-6.282-9.678 6.933c-0.454 0.326-0.726 0.845-0.726 1.389v6.422c0 0.662 0.379 1.269 0.988 1.584s1.348 0.284 1.928-0.083l4.349-2.768 4.277 2.798c0.375 0.246 0.821 0.376 1.271 0.376 0.152 0 0.305-0.015 0.456-0.045 0.601-0.12 1.132-0.476 1.458-0.976l18.119-28.663c0.353-0.552 0.302-1.258-0.127-1.76zM24.088 29.421l-4.429-2.897c-0.308-0.202-0.663-0.303-1.018-0.303-0.347 0-0.695 0.097-0.999 0.29l-3.713 2.363v-4.841l17.089-12.242c0.763-0.547 0.955-1.542 0.447-2.314s-1.528-1.034-2.37-0.607l-20.532 10.387-4.842-3.171 36.879-12.785-16.512 26.12z"></path>
</symbol>
<symbol id="whatsapp" viewBox="0 0 33 32">
<path d="M27.636 4.534c-2.886-2.884-6.721-4.472-10.802-4.472-0 0-0.001 0-0.002 0-2.018 0-3.985 0.391-5.846 1.161s-3.528 1.884-4.955 3.311c-2.885 2.884-4.474 6.718-4.474 10.797 0 2.432 0.587 4.849 1.7 7.003l-2.568 7.332c-0.181 0.517-0.053 1.079 0.335 1.467 0.271 0.271 0.628 0.416 0.996 0.416 0.157 0 0.317-0.026 0.472-0.081l7.336-2.566c2.155 1.112 4.573 1.699 7.007 1.699 4.081 0 7.917-1.588 10.802-4.472s4.474-6.718 4.474-10.797c0-4.079-1.589-7.913-4.474-10.797zM26.329 24.821c-2.536 2.535-5.909 3.931-9.496 3.931-2.194 0-4.374-0.542-6.304-1.569-0.35-0.186-0.764-0.218-1.135-0.088l-6.665 2.331 2.333-6.661c0.13-0.372 0.098-0.785-0.088-1.135-1.027-1.928-1.57-4.107-1.57-6.301 0-3.585 1.397-6.956 3.933-9.491s5.908-3.931 9.495-3.931h0.001c3.587 0 6.959 1.396 9.496 3.931s3.933 5.906 3.933 9.491c0 3.585-1.397 6.956-3.933 9.491z"></path>
<path d="M22.511 16.694c-0.703-0.702-1.846-0.702-2.549 0l-0.769 0.768c-1.909-1.039-3.453-2.583-4.493-4.491l0.769-0.768c0.703-0.702 0.703-1.845 0-2.548l-2.071-2.070c-0.703-0.702-1.846-0.702-2.549 0l-1.657 1.656c-0.949 0.949-0.996 2.579-0.133 4.592 0.749 1.748 2.121 3.668 3.862 5.408s3.663 3.111 5.411 3.86c0.957 0.41 1.827 0.614 2.579 0.614 0.831 0 1.517-0.25 2.016-0.748l1.657-1.656c0.341-0.34 0.528-0.793 0.528-1.274s-0.188-0.934-0.528-1.274l-2.071-2.070zM21.619 21.663c-0.271 0.271-1.104 0.366-2.56-0.258-1.538-0.659-3.254-1.89-4.833-3.468s-2.811-3.293-3.47-4.83c-0.624-1.455-0.529-2.288-0.258-2.559l1.625-1.624 2.007 2.007-0.962 0.962c-0.435 0.435-0.54 1.094-0.261 1.641 1.265 2.479 3.245 4.458 5.725 5.722 0.547 0.279 1.207 0.174 1.642-0.261l0.962-0.962 2.008 2.006-1.625 1.624z"></path>
</symbol>

</defs>
</svg>
